<?xml version="1.0" standalone="no"?>
<svg xmlns:xlink="http://www.w3.org/1999/xlink" id="wave" style="transform:rotate(0deg); transition: 0.3s" viewBox="0 0 1440 490" version="1.1" xmlns="http://www.w3.org/2000/svg"><defs><linearGradient id="sw-gradient-0" x1="0" x2="0" y1="1" y2="0"><stop stop-color="rgba(48.297, 101.419, 247.503, 1)" offset="0%"/><stop stop-color="rgba(48.297, 101.419, 247.503, 1)" offset="100%"/></linearGradient></defs><path style="transform:translate(0, 0px); opacity:1" fill="url(#sw-gradient-0)" d="M0,294L120,253.2C240,212,480,131,720,122.5C960,114,1200,180,1440,187.8C1680,196,1920,147,2160,114.3C2400,82,2640,65,2880,98C3120,131,3360,212,3600,220.5C3840,229,4080,163,4320,187.8C4560,212,4800,327,5040,367.5C5280,408,5520,376,5760,334.8C6000,294,6240,245,6480,253.2C6720,261,6960,327,7200,351.2C7440,376,7680,359,7920,367.5C8160,376,8400,408,8640,383.8C8880,359,9120,278,9360,228.7C9600,180,9840,163,10080,163.3C10320,163,10560,180,10800,179.7C11040,180,11280,163,11520,171.5C11760,180,12000,212,12240,261.3C12480,310,12720,376,12960,334.8C13200,294,13440,147,13680,89.8C13920,33,14160,65,14400,81.7C14640,98,14880,98,15120,81.7C15360,65,15600,33,15840,89.8C16080,147,16320,294,16560,359.3C16800,425,17040,408,17160,400.2L17280,392L17280,490L17160,490C17040,490,16800,490,16560,490C16320,490,16080,490,15840,490C15600,490,15360,490,15120,490C14880,490,14640,490,14400,490C14160,490,13920,490,13680,490C13440,490,13200,490,12960,490C12720,490,12480,490,12240,490C12000,490,11760,490,11520,490C11280,490,11040,490,10800,490C10560,490,10320,490,10080,490C9840,490,9600,490,9360,490C9120,490,8880,490,8640,490C8400,490,8160,490,7920,490C7680,490,7440,490,7200,490C6960,490,6720,490,6480,490C6240,490,6000,490,5760,490C5520,490,5280,490,5040,490C4800,490,4560,490,4320,490C4080,490,3840,490,3600,490C3360,490,3120,490,2880,490C2640,490,2400,490,2160,490C1920,490,1680,490,1440,490C1200,490,960,490,720,490C480,490,240,490,120,490L0,490Z"/></svg>